<svg version="1.1" id="Layer_1" xmlns="http://www.w3.org/2000/svg" xmlns:xlink="http://www.w3.org/1999/xlink" x="0px" y="0px"
	 width="100%" viewBox="0 0 215 234" enable-background="new 0 0 215 234" xml:space="preserve">
<path fill="#FEFEFF" opacity="1.000000" stroke="none" 
	d="
M1.000000,71.000000 
	C1.000000,47.692997 1.000000,24.385990 1.000000,1.039493 
	C72.559448,1.039493 144.118927,1.039493 216.000000,1.039493 
	C216.000000,35.020218 216.000000,69.041451 215.646179,103.430611 
	C213.237762,102.952827 211.189850,101.391769 209.127502,101.372467 
	C189.299423,101.186920 169.468643,101.206474 149.639206,101.293259 
	C143.373413,101.320686 141.271591,104.552635 143.500595,110.391052 
	C147.946259,122.035469 152.493973,133.640945 156.933640,145.287613 
	C158.693558,149.904465 157.925919,151.013336 152.969650,150.859299 
	C147.979095,150.704193 142.983688,149.956711 138.016663,150.148514 
	C135.931152,150.229050 133.263916,151.549133 131.983582,153.184464 
	C127.782776,158.550079 123.922852,164.208649 120.274864,169.971710 
	C117.886673,173.744568 115.561798,173.884140 112.120590,171.420059 
	C106.167786,167.157547 99.921692,163.304077 93.978561,159.028885 
	C91.521400,157.261307 89.711563,157.410156 87.317108,159.066849 
	C78.146210,165.412125 68.888199,171.634247 59.562500,177.749542 
	C58.367493,178.533173 56.583332,178.418335 55.072098,178.719711 
	C54.972950,177.209488 54.466797,175.589203 54.840546,174.206833 
	C57.312389,165.064331 59.902885,155.951904 62.614742,146.877487 
	C63.443180,144.105362 62.879585,142.484207 60.084782,141.460144 
	C56.186184,140.031647 52.374168,138.366531 48.527214,136.797501 
	C42.509438,134.343063 42.333084,133.775574 46.245823,128.867844 
	C49.879799,124.309776 53.450310,119.693680 57.263916,115.289429 
	C59.129990,113.134346 59.205734,111.484215 57.505901,109.196922 
	C54.031952,104.522369 50.762600,99.691475 47.520351,94.850395 
	C44.964737,91.034538 45.716763,89.453415 50.155418,89.086182 
	C55.130741,88.674545 60.108803,88.193512 65.094673,88.045357 
	C68.865211,87.933311 69.901695,86.398552 69.518913,82.697052 
	C68.800148,75.746613 68.537155,68.747002 68.162193,61.763680 
	C67.841705,55.794823 69.161812,54.934494 74.855309,57.309303 
	C80.837639,59.804585 86.862213,62.210751 92.753258,64.907272 
	C95.483292,66.156898 97.341805,65.753548 99.289154,63.531696 
	C103.571007,58.646278 108.015137,53.902378 112.422073,49.127522 
	C116.397858,44.819813 117.497940,45.046829 119.720985,50.664131 
	C122.473480,57.619289 125.085442,64.631432 127.929062,71.548683 
	C129.894211,76.329002 132.870529,77.269035 136.900085,74.310966 
	C148.981064,65.442398 161.058731,56.562347 172.886856,47.364235 
	C174.553543,46.068138 176.011948,42.537861 175.390625,40.836369 
	C174.806152,39.235832 171.295242,37.737465 169.156937,37.847488 
	C162.026779,38.214375 154.912933,39.174625 147.837845,40.213936 
	C144.507629,40.703133 143.075714,39.426105 141.975342,36.471630 
	C138.437164,26.971823 134.676651,17.554544 130.973557,8.116554 
	C128.078674,0.738447 124.827011,0.032779 119.533104,5.700353 
	C111.458351,14.345048 103.333763,22.948048 95.466797,31.779388 
	C92.660934,34.929207 90.236992,36.015434 86.059036,34.113407 
	C75.775932,29.432001 65.258354,25.266270 54.841930,20.876873 
	C47.082020,17.606913 44.671791,19.088312 44.270817,27.701694 
	C43.759609,38.683151 43.532326,49.679565 42.861935,60.649929 
	C42.765030,62.235706 41.014462,64.911819 39.802128,65.046967 
	C31.169628,66.009315 22.474661,66.397224 13.806816,67.062340 
	C9.262947,67.410995 4.365825,66.759575 1.000000,71.000000 
z"/>
<path fill="#813AE9" opacity="1.000000" stroke="none" 
	d="
M1.000000,71.399994 
	C4.365825,66.759575 9.262947,67.410995 13.806816,67.062340 
	C22.474661,66.397224 31.169628,66.009315 39.802128,65.046967 
	C41.014462,64.911819 42.765030,62.235706 42.861935,60.649929 
	C43.532326,49.679565 43.759609,38.683151 44.270817,27.701694 
	C44.671791,19.088312 47.082020,17.606913 54.841930,20.876873 
	C65.258354,25.266270 75.775932,29.432001 86.059036,34.113407 
	C90.236992,36.015434 92.660934,34.929207 95.466797,31.779388 
	C103.333763,22.948048 111.458351,14.345048 119.533104,5.700353 
	C124.827011,0.032779 128.078674,0.738447 130.973557,8.116554 
	C134.676651,17.554544 138.437164,26.971823 141.975342,36.471630 
	C143.075714,39.426105 144.507629,40.703133 147.837845,40.213936 
	C154.912933,39.174625 162.026779,38.214375 169.156937,37.847488 
	C171.295242,37.737465 174.806152,39.235832 175.390625,40.836369 
	C176.011948,42.537861 174.553543,46.068138 172.886856,47.364235 
	C161.058731,56.562347 148.981064,65.442398 136.900085,74.310966 
	C132.870529,77.269035 129.894211,76.329002 127.929062,71.548683 
	C125.085442,64.631432 122.473480,57.619289 119.720985,50.664131 
	C117.497940,45.046829 116.397858,44.819813 112.422073,49.127522 
	C108.015137,53.902378 103.571007,58.646278 99.289154,63.531696 
	C97.341805,65.753548 95.483292,66.156898 92.753258,64.907272 
	C86.862213,62.210751 80.837639,59.804585 74.855309,57.309303 
	C69.161812,54.934494 67.841705,55.794823 68.162193,61.763680 
	C68.537155,68.747002 68.800148,75.746613 69.518913,82.697052 
	C69.901695,86.398552 68.865211,87.933311 65.094673,88.045357 
	C60.108803,88.193512 55.130741,88.674545 50.155418,89.086182 
	C45.716763,89.453415 44.964737,91.034538 47.520351,94.850395 
	C50.762600,99.691475 54.031952,104.522369 57.505901,109.196922 
	C59.205734,111.484215 59.129990,113.134346 57.263916,115.289429 
	C53.450310,119.693680 49.879799,124.309776 46.245823,128.867844 
	C42.333084,133.775574 42.509438,134.343063 48.527214,136.797501 
	C52.374168,138.366531 56.186184,140.031647 60.084782,141.460144 
	C62.879585,142.484207 63.443180,144.105362 62.614742,146.877487 
	C59.902885,155.951904 57.312389,165.064331 54.840546,174.206833 
	C54.466797,175.589203 54.972950,177.209488 55.072098,178.719711 
	C56.583332,178.418335 58.367493,178.533173 59.562500,177.749542 
	C68.888199,171.634247 78.146210,165.412125 87.317108,159.066849 
	C89.711563,157.410156 91.521400,157.261307 93.978561,159.028885 
	C99.921692,163.304077 106.167786,167.157547 112.120590,171.420059 
	C115.561798,173.884140 117.886673,173.744568 120.274864,169.971710 
	C123.922852,164.208649 127.782776,158.550079 131.983582,153.184464 
	C133.263916,151.549133 135.931152,150.229050 138.016663,150.148514 
	C142.983688,149.956711 147.979095,150.704193 152.969650,150.859299 
	C157.925919,151.013336 158.693558,149.904465 156.933640,145.287613 
	C152.493973,133.640945 147.946259,122.035469 143.500595,110.391052 
	C141.271591,104.552635 143.373413,101.320686 149.639206,101.293259 
	C169.468643,101.206474 189.299423,101.186920 209.127502,101.372467 
	C211.189850,101.391769 213.237762,102.952827 215.646179,103.899269 
	C216.000000,105.388893 216.000000,106.777779 215.658813,108.657478 
	C213.668381,110.223984 212.113754,111.496544 210.353989,112.342316 
	C201.361115,116.664406 192.413437,121.105637 183.246124,125.028908 
	C178.747360,126.954208 178.270767,129.225189 179.998825,133.484863 
	C185.558655,147.190063 190.798508,161.025696 196.099930,174.834763 
	C198.157654,180.194733 195.725662,183.286057 190.076599,182.592392 
	C176.866974,180.970337 163.641296,179.454559 150.469894,177.563110 
	C147.256195,177.101624 145.559586,177.983749 143.931458,180.549942 
	C138.937729,188.420776 133.781036,196.188675 128.652466,203.973389 
	C124.656204,210.039383 123.170830,210.305191 117.078331,206.030212 
	C109.036011,200.387131 100.936226,194.819305 93.044769,188.971344 
	C90.152641,186.828125 88.126801,186.819946 85.152817,188.988358 
	C69.008217,200.759827 52.687996,212.290527 36.423054,223.896851 
	C32.221104,226.895264 28.163004,230.151749 23.702824,232.702072 
	C22.076649,233.631943 19.017149,233.589355 17.457640,232.623840 
	C16.173510,231.828812 15.942533,229.046539 15.629604,227.083618 
	C15.460316,226.021713 16.079809,224.827087 16.371822,223.699677 
	C21.455946,204.070633 26.468895,184.422562 31.693157,164.830856 
	C32.792725,160.707336 32.086346,158.409668 27.784609,156.848648 
	C21.546267,154.584885 15.498146,151.763474 9.477256,148.948166 
	C6.525608,147.568024 3.818035,145.665894 1.000000,144.000000 
	C1.000000,142.933334 1.000000,141.866653 1.286712,140.231750 
	C6.909622,133.492294 12.222948,127.301140 17.587219,121.154434 
	C26.245197,111.233604 26.329878,111.197556 18.758558,100.172050 
	C12.946105,91.707848 6.927129,83.385460 0.999999,75.000000 
	C1.000000,73.933327 1.000000,72.866661 1.000000,71.399994 
z"/>
<path fill="#FEFEFF" opacity="1.000000" stroke="none" 
	d="
M1.000000,144.468658 
	C3.818035,145.665894 6.525608,147.568024 9.477256,148.948166 
	C15.498146,151.763474 21.546267,154.584885 27.784609,156.848648 
	C32.086346,158.409668 32.792725,160.707336 31.693157,164.830856 
	C26.468895,184.422562 21.455946,204.070633 16.371822,223.699677 
	C16.079809,224.827087 15.460316,226.021713 15.629604,227.083618 
	C15.942533,229.046539 16.173510,231.828812 17.457640,232.623840 
	C19.017149,233.589355 22.076649,233.631943 23.702824,232.702072 
	C28.163004,230.151749 32.221104,226.895264 36.423054,223.896851 
	C52.687996,212.290527 69.008217,200.759827 85.152817,188.988358 
	C88.126801,186.819946 90.152641,186.828125 93.044769,188.971344 
	C100.936226,194.819305 109.036011,200.387131 117.078331,206.030212 
	C123.170830,210.305191 124.656204,210.039383 128.652466,203.973389 
	C133.781036,196.188675 138.937729,188.420776 143.931458,180.549942 
	C145.559586,177.983749 147.256195,177.101624 150.469894,177.563110 
	C163.641296,179.454559 176.866974,180.970337 190.076599,182.592392 
	C195.725662,183.286057 198.157654,180.194733 196.099930,174.834763 
	C190.798508,161.025696 185.558655,147.190063 179.998825,133.484863 
	C178.270767,129.225189 178.747360,126.954208 183.246124,125.028908 
	C192.413437,121.105637 201.361115,116.664406 210.353989,112.342316 
	C212.113754,111.496544 213.668381,110.223984 215.658813,109.074142 
	C216.000000,150.957428 216.000000,192.914871 216.000000,234.936157 
	C144.448578,234.936157 72.897087,234.936157 1.000000,234.936157 
	C1.000000,204.979996 1.000000,174.958649 1.000000,144.468658 
z"/>
<path fill="#FEFDFF" opacity="1.000000" stroke="none" 
	d="
M0.999999,75.468658 
	C6.927129,83.385460 12.946105,91.707848 18.758558,100.172050 
	C26.329878,111.197556 26.245197,111.233604 17.587219,121.154434 
	C12.222948,127.301140 6.909622,133.492294 1.286712,139.831757 
	C1.000000,118.645775 1.000000,97.291542 0.999999,75.468658 
z"/>
</svg>