<svg version="1.1" id="Layer_1" xmlns="http://www.w3.org/2000/svg" xmlns:xlink="http://www.w3.org/1999/xlink" x="0px" y="0px"
	 width="100%" viewBox="0 0 200 200" enable-background="new 0 0 200 200" xml:space="preserve">
<path fill="#FEFEFE" opacity="1.000000" stroke="none" 
	d="
M133.000000,201.000000 
	C88.666672,201.000000 44.833340,201.000000 1.000006,201.000000 
	C1.000004,134.333344 1.000004,67.666679 1.000002,1.000015 
	C67.666656,1.000010 134.333313,1.000010 200.999969,1.000005 
	C200.999985,67.666649 200.999985,134.333298 201.000000,200.999969 
	C178.500000,201.000000 156.000000,201.000000 133.000000,201.000000 
M71.664207,40.058033 
	C70.334259,40.743610 68.983047,41.391140 67.677475,42.120350 
	C37.634716,58.900303 24.194941,95.466782 36.177906,127.799423 
	C48.097733,159.961716 81.225922,179.028061 114.436661,171.695282 
	C141.797195,165.654205 159.913971,148.449753 166.932449,121.280045 
	C174.080078,93.610329 166.851181,69.136871 145.142151,50.398384 
	C123.529228,31.742853 98.747398,28.829149 71.664207,40.058033 
z"/>
<path fill="#1A1E28" opacity="1.000000" stroke="none" 
	d="
M72.021957,39.936462 
	C98.747398,28.829149 123.529228,31.742853 145.142151,50.398384 
	C166.851181,69.136871 174.080078,93.610329 166.932449,121.280045 
	C159.913971,148.449753 141.797195,165.654205 114.436661,171.695282 
	C81.225922,179.028061 48.097733,159.961716 36.177906,127.799423 
	C24.194941,95.466782 37.634716,58.900303 67.677475,42.120350 
	C68.983047,41.391140 70.334259,40.743610 72.021957,39.936462 
M77.407150,134.423676 
	C77.503258,137.579605 76.934196,140.965775 77.920021,143.813721 
	C78.623947,145.847305 81.519859,148.561203 83.248871,148.432632 
	C85.358940,148.275742 87.538918,145.678741 89.152168,143.699707 
	C89.916504,142.762039 89.505119,140.808212 89.506142,139.314697 
	C89.522545,115.326118 89.524246,91.337547 89.509636,67.348976 
	C89.508728,65.856537 89.892975,63.945957 89.140778,62.960846 
	C87.676247,61.042828 85.568718,58.427395 83.659821,58.370468 
	C81.741516,58.313263 79.323990,60.711864 77.924919,62.620468 
	C77.013474,63.863857 77.425583,66.154205 77.423523,67.975739 
	C77.398827,89.798729 77.407623,111.621750 77.407150,134.423676 
M111.920586,115.499985 
	C111.928635,124.494225 111.915192,133.488556 111.954926,142.482666 
	C111.971718,146.280350 114.124641,148.564301 117.731865,148.658615 
	C121.375519,148.753891 123.476219,146.407745 123.881943,142.745895 
	C123.991409,141.757889 123.920715,140.749161 123.920815,139.749939 
	C123.923210,115.431770 123.930084,91.113602 123.920578,66.795433 
	C123.918327,61.050953 121.927521,58.152233 118.002541,58.058697 
	C113.978806,57.962811 111.933739,60.776665 111.928291,66.530113 
	C111.913155,82.520058 111.921509,98.510025 111.920586,115.499985 
M94.872040,76.135933 
	C94.830070,93.432121 94.762558,110.728302 94.762459,128.024490 
	C94.762428,132.903214 96.981697,135.661957 100.647705,135.672806 
	C104.276352,135.683548 106.742271,132.792694 106.760292,128.082245 
	C106.823250,111.615898 106.770325,95.149132 106.807358,78.682632 
	C106.815262,75.164566 105.650620,72.318504 102.108734,71.347679 
	C98.720924,70.419083 96.373276,72.152023 94.872040,76.135933 
M60.187191,109.399246 
	C60.188236,111.227859 60.218693,113.057030 60.184395,114.884979 
	C60.105549,119.087219 61.669945,122.132545 66.197655,122.527885 
	C69.891464,122.850395 72.152039,119.940521 72.190239,115.065750 
	C72.251457,107.252640 72.250069,99.438362 72.189911,91.625229 
	C72.153259,86.864578 69.756752,83.845993 66.106529,84.223419 
	C61.929081,84.655373 60.185516,87.424751 60.192699,91.469757 
	C60.202732,97.122131 60.190128,102.774544 60.187191,109.399246 
M141.034363,97.565842 
	C141.034256,95.571098 141.066498,93.575729 141.027573,91.581749 
	C140.936325,86.908226 138.518204,83.858070 134.864960,84.239929 
	C130.675842,84.677803 128.980026,87.413528 129.005234,91.492622 
	C129.054550,99.471260 129.044632,107.450569 129.005676,115.429337 
	C128.985504,119.558830 130.867844,122.414711 135.015884,122.447571 
	C139.183945,122.480591 141.087906,119.666588 141.044952,115.502670 
	C140.986649,109.851562 141.033005,104.199364 141.034363,97.565842 
z"/>
<path fill="#F6F6F6" opacity="1.000000" stroke="none" 
	d="
M77.407410,133.934219 
	C77.407623,111.621750 77.398827,89.798729 77.423523,67.975739 
	C77.425583,66.154205 77.013474,63.863857 77.924919,62.620468 
	C79.323990,60.711864 81.741516,58.313263 83.659821,58.370468 
	C85.568718,58.427395 87.676247,61.042828 89.140778,62.960846 
	C89.892975,63.945957 89.508728,65.856537 89.509636,67.348976 
	C89.524246,91.337547 89.522545,115.326118 89.506142,139.314697 
	C89.505119,140.808212 89.916504,142.762039 89.152168,143.699707 
	C87.538918,145.678741 85.358940,148.275742 83.248871,148.432632 
	C81.519859,148.561203 78.623947,145.847305 77.920021,143.813721 
	C76.934196,140.965775 77.503258,137.579605 77.407410,133.934219 
z"/>
<path fill="#FBFCFC" opacity="1.000000" stroke="none" 
	d="
M111.920578,114.999985 
	C111.921509,98.510025 111.913155,82.520058 111.928291,66.530113 
	C111.933739,60.776665 113.978806,57.962811 118.002541,58.058697 
	C121.927521,58.152233 123.918327,61.050953 123.920578,66.795433 
	C123.930084,91.113602 123.923210,115.431770 123.920815,139.749939 
	C123.920715,140.749161 123.991409,141.757889 123.881943,142.745895 
	C123.476219,146.407745 121.375519,148.753891 117.731865,148.658615 
	C114.124641,148.564301 111.971718,146.280350 111.954926,142.482666 
	C111.915192,133.488556 111.928635,124.494225 111.920578,114.999985 
z"/>
<path fill="#F8F8F8" opacity="1.000000" stroke="none" 
	d="
M94.940468,75.707840 
	C96.373276,72.152023 98.720924,70.419083 102.108734,71.347679 
	C105.650620,72.318504 106.815262,75.164566 106.807358,78.682632 
	C106.770325,95.149132 106.823250,111.615898 106.760292,128.082245 
	C106.742271,132.792694 104.276352,135.683548 100.647705,135.672806 
	C96.981697,135.661957 94.762428,132.903214 94.762459,128.024490 
	C94.762558,110.728302 94.830070,93.432121 94.940468,75.707840 
z"/>
<path fill="#F7F8F8" opacity="1.000000" stroke="none" 
	d="
M60.187202,108.913094 
	C60.190128,102.774544 60.202732,97.122131 60.192699,91.469757 
	C60.185516,87.424751 61.929081,84.655373 66.106529,84.223419 
	C69.756752,83.845993 72.153259,86.864578 72.189911,91.625229 
	C72.250069,99.438362 72.251457,107.252640 72.190239,115.065750 
	C72.152039,119.940521 69.891464,122.850395 66.197655,122.527885 
	C61.669945,122.132545 60.105549,119.087219 60.184395,114.884979 
	C60.218693,113.057030 60.188236,111.227859 60.187202,108.913094 
z"/>
<path fill="#FAFBFB" opacity="1.000000" stroke="none" 
	d="
M141.034424,98.056740 
	C141.033005,104.199364 140.986649,109.851562 141.044952,115.502670 
	C141.087906,119.666588 139.183945,122.480591 135.015884,122.447571 
	C130.867844,122.414711 128.985504,119.558830 129.005676,115.429337 
	C129.044632,107.450569 129.054550,99.471260 129.005234,91.492622 
	C128.980026,87.413528 130.675842,84.677803 134.864960,84.239929 
	C138.518204,83.858070 140.936325,86.908226 141.027573,91.581749 
	C141.066498,93.575729 141.034256,95.571098 141.034424,98.056740 
z"/>
</svg>