<svg version="1.1" id="Layer_1" xmlns="http://www.w3.org/2000/svg" xmlns:xlink="http://www.w3.org/1999/xlink" x="0px" y="0px"
	 width="100%" viewBox="0 0 1440 576" enable-background="new 0 0 1440 576" xml:space="preserve">
<path fill="#FFFFFF" opacity="1.000000" stroke="none" 
	d="
M922.000000,577.000000 
	C614.704712,577.000000 307.909363,577.000000 1.057033,577.000000 
	C1.057033,385.061829 1.057033,193.123642 1.057033,1.092722 
	C480.878693,1.092722 960.757385,1.092722 1440.818115,1.092722 
	C1440.818115,192.999863 1440.818115,384.999908 1440.818115,577.000000 
	C1268.123535,577.000000 1095.311768,577.000000 922.000000,577.000000 
M591.809814,72.641548 
	C565.596008,68.087784 540.438782,71.590714 516.623901,83.316544 
	C459.760651,111.314545 434.038208,177.761780 457.079865,236.860352 
	C458.393250,240.228989 457.550079,241.536331 454.832672,243.564209 
	C448.053955,248.622910 441.018677,253.623184 435.313812,259.783569 
	C415.870636,280.779053 406.270172,305.477478 406.669952,334.545715 
	C407.017975,359.847229 414.762665,382.093323 430.966125,400.922821 
	C456.621796,430.736420 489.323944,443.159149 528.567444,437.109924 
	C531.260193,436.694824 532.848022,436.995697 534.228821,440.094666 
	C557.990356,493.424622 602.985046,515.526611 658.281128,508.348938 
	C689.173218,504.338989 713.514038,487.304626 731.426270,461.701874 
	C735.768799,455.494965 739.254639,448.688629 743.265930,441.936523 
	C744.578735,442.502869 745.920898,443.093170 747.271729,443.662933 
	C766.336609,451.704224 786.106384,453.635925 806.250977,449.378143 
	C833.984314,443.516357 855.387695,428.216614 870.450195,404.214233 
	C872.154297,401.498779 873.766296,400.938843 876.834839,401.429199 
	C904.652954,405.874817 931.674622,403.068542 956.974731,390.327209 
	C1006.446777,365.412750 1032.991577,324.863373 1034.726685,269.597321 
	C1036.120850,225.192566 1018.539490,188.267441 983.950256,160.275314 
	C953.491882,135.626236 918.386353,125.883888 879.500854,132.024246 
	C867.657288,133.894470 856.118591,137.695206 844.202454,140.671173 
	C809.445496,79.310539 722.609192,62.588131 667.791565,117.966904 
	C637.944092,88.174049 618.246704,76.315926 591.809814,72.641548 
z"/>
<path fill="#01A0E4" opacity="1.000000" stroke="none" 
	d="
M592.241882,72.693230 
	C618.246704,76.315926 637.944092,88.174049 667.791565,117.966904 
	C722.609192,62.588131 809.445496,79.310539 844.202454,140.671173 
	C856.118591,137.695206 867.657288,133.894470 879.500854,132.024246 
	C918.386353,125.883888 953.491882,135.626236 983.950256,160.275314 
	C1018.539490,188.267441 1036.120850,225.192566 1034.726685,269.597321 
	C1032.991577,324.863373 1006.446777,365.412750 956.974731,390.327209 
	C931.674622,403.068542 904.652954,405.874817 876.834839,401.429199 
	C873.766296,400.938843 872.154297,401.498779 870.450195,404.214233 
	C855.387695,428.216614 833.984314,443.516357 806.250977,449.378143 
	C786.106384,453.635925 766.336609,451.704224 747.271729,443.662933 
	C745.920898,443.093170 744.578735,442.502869 743.265930,441.936523 
	C739.254639,448.688629 735.768799,455.494965 731.426270,461.701874 
	C713.514038,487.304626 689.173218,504.338989 658.281128,508.348938 
	C602.985046,515.526611 557.990356,493.424622 534.228821,440.094666 
	C532.848022,436.995697 531.260193,436.694824 528.567444,437.109924 
	C489.323944,443.159149 456.621796,430.736420 430.966125,400.922821 
	C414.762665,382.093323 407.017975,359.847229 406.669952,334.545715 
	C406.270172,305.477478 415.870636,280.779053 435.313812,259.783569 
	C441.018677,253.623184 448.053955,248.622910 454.832672,243.564209 
	C457.550079,241.536331 458.393250,240.228989 457.079865,236.860352 
	C434.038208,177.761780 459.760651,111.314545 516.623901,83.316544 
	C540.438782,71.590714 565.596008,68.087784 592.241882,72.693230 
M767.459839,224.718918 
	C754.381592,227.095322 752.087341,237.797272 749.664856,248.130737 
	C739.603333,249.235901 739.603333,249.235901 739.228699,257.933594 
	C742.082458,258.132721 744.954590,258.333130 748.204468,258.559906 
	C745.094116,275.504211 742.445923,292.018219 738.940308,308.348145 
	C736.278625,320.747162 734.273315,321.739258 721.519287,320.718292 
	C720.580994,323.505676 719.616882,326.369659 718.651611,329.237244 
	C735.106750,334.503174 745.088135,328.213989 748.693787,316.058044 
	C751.086853,307.990112 752.390259,299.586548 753.970154,291.292969 
	C756.046509,280.393616 757.915039,269.454651 759.943298,258.140503 
	C764.424622,258.140503 768.533447,258.140503 772.936646,258.140503 
	C773.408997,254.848785 773.820312,251.982849 774.274719,248.816162 
	C769.893921,248.620605 766.147278,248.453354 762.441406,248.287918 
	C761.648926,237.445267 766.611267,233.418503 779.350403,234.568008 
	C780.323975,231.725983 781.323242,228.809082 782.823853,224.428391 
	C777.317261,224.428391 772.788391,224.428391 767.459839,224.718918 
M579.129150,305.888489 
	C584.424683,304.860413 589.720215,303.832336 594.995728,302.808167 
	C594.995728,289.907166 595.243347,277.744720 594.918701,265.597565 
	C594.650391,255.555496 589.142456,249.153168 579.163757,248.171768 
	C572.539978,247.520309 565.599182,248.002701 559.044434,249.255051 
	C550.436401,250.899704 550.176636,252.180588 553.661194,260.101379 
	C553.853882,260.539276 554.199646,260.909821 554.000366,260.618042 
	C560.106812,259.378754 565.551086,257.679413 571.088623,257.283234 
	C580.408203,256.616516 584.545105,261.473755 582.553589,269.636353 
	C573.901367,268.683167 565.282104,267.927155 557.216675,272.300232 
	C550.499695,275.942200 547.080872,282.876312 548.009583,290.742279 
	C548.867798,298.011505 553.583618,303.543671 561.343811,304.912079 
	C566.849548,305.882874 572.573059,305.618774 579.129150,305.888489 
M923.353638,263.059448 
	C922.631287,269.937622 920.829590,276.910645 921.423828,283.673126 
	C922.478760,295.677612 930.444519,303.929840 941.998901,305.483246 
	C948.307129,306.331390 954.971558,305.958099 961.289795,304.960327 
	C970.155273,303.560333 970.319519,302.592010 966.379517,294.433197 
	C966.314453,294.298553 966.134583,294.219360 965.718079,293.872833 
	C962.910095,294.504272 959.901794,295.451416 956.825867,295.798737 
	C953.541138,296.169678 950.169434,296.249420 946.876282,295.972839 
	C938.176514,295.242096 933.370056,289.236359 934.200439,279.833130 
	C946.351807,279.833130 958.567017,279.833130 970.678650,279.833130 
	C972.888672,263.701141 966.966553,251.593872 955.318787,248.413361 
	C942.550537,244.926880 928.550110,249.967957 923.353638,263.059448 
M645.005798,249.221222 
	C627.949829,255.752594 625.657227,279.887451 632.431152,293.096527 
	C639.304993,306.500366 660.985718,310.933197 677.242432,302.071625 
	C676.354187,299.414917 675.437195,296.672211 674.716370,294.516266 
	C667.943054,295.057739 661.702332,296.084198 655.491394,295.927673 
	C646.489075,295.700897 641.655884,289.620087 642.253723,280.032806 
	C648.200378,280.032806 654.174133,280.032806 660.147888,280.032806 
	C666.283569,280.032806 672.419250,280.032806 678.924988,280.032806 
	C680.114868,269.909882 679.565552,260.633789 671.908813,253.440781 
	C664.298767,246.291626 655.215210,246.211487 645.005798,249.221222 
M818.836670,300.370667 
	C825.268677,294.895020 827.154602,287.407074 827.859924,279.498810 
	C829.883179,256.814209 812.251465,241.886139 791.853088,249.053879 
	C780.898682,252.903107 777.023743,261.849884 775.290527,272.451691 
	C773.441956,283.759460 778.353638,296.612946 786.909790,302.457245 
	C794.349243,307.538818 810.345520,308.114380 818.836670,300.370667 
M727.257019,298.585114 
	C733.152405,288.270447 730.350403,279.355255 719.608337,274.465942 
	C717.500610,273.506622 715.269775,272.816986 713.092712,272.010925 
	C709.991577,270.862671 706.575867,270.192566 703.892212,268.415649 
	C702.037292,267.187500 699.817261,264.080383 700.237183,262.451447 
	C700.783875,260.330902 703.521667,258.150513 705.805176,257.285034 
	C707.922607,256.482483 710.753357,257.059082 713.144226,257.592285 
	C717.281189,258.514954 721.320984,259.873688 725.633728,261.116394 
	C726.124023,259.968811 726.469055,258.864594 727.035034,257.888489 
	C729.335938,253.920090 728.247803,251.149216 723.891785,250.172165 
	C718.277405,248.912857 712.568115,247.310577 706.889771,247.270889 
	C696.723816,247.199799 689.445435,253.625717 688.154541,262.508667 
	C686.963196,270.706543 691.292480,276.442047 701.577454,280.157196 
	C705.780884,281.675537 710.212097,282.695648 714.187012,284.657166 
	C716.108154,285.605225 718.626465,288.452362 718.356140,289.999695 
	C717.955872,292.290619 715.691040,295.212738 713.535583,296.005890 
	C710.625488,297.076691 706.903076,297.046906 703.822144,296.292755 
	C698.937744,295.097168 694.295776,292.910675 689.551392,291.142944 
	C685.392456,299.753204 685.734863,300.667725 694.492615,304.010193 
	C695.887695,304.542694 697.308411,305.099365 698.768127,305.356445 
	C708.960815,307.151611 719.027405,308.233459 727.257019,298.585114 
M512.050842,248.215561 
	C503.242706,251.780701 498.806824,257.583984 499.112579,265.142181 
	C499.402893,272.318176 503.805634,277.080902 512.876221,280.173981 
	C517.269165,281.671997 521.770996,282.989044 525.912109,285.022247 
	C527.672852,285.886719 529.900391,288.579987 529.659973,290.080750 
	C529.311035,292.258575 527.268127,295.244324 525.318726,295.845215 
	C522.011719,296.864624 518.053467,296.993683 514.661011,296.218567 
	C509.928162,295.137177 505.463959,292.879944 500.881409,291.124634 
	C496.564545,299.813507 496.798065,301.474121 506.038849,303.904999 
	C512.609924,305.633545 519.747986,306.134216 526.559082,305.776031 
	C534.217468,305.373322 540.123413,299.024109 541.054016,292.181458 
	C542.245300,283.422791 539.305054,278.214905 530.788574,274.481506 
	C527.600891,273.084106 524.217773,272.138855 520.960693,270.891083 
	C518.644775,270.003845 516.109009,269.323090 514.199402,267.860718 
	C512.712891,266.722351 511.034668,264.369934 511.265930,262.831299 
	C511.542084,260.994385 513.464172,258.581604 515.210876,257.980499 
	C517.882874,257.060944 521.112122,256.942383 523.929199,257.453003 
	C528.233704,258.233276 532.388428,259.839813 536.927429,261.191040 
	C537.960571,258.432495 538.926697,255.852951 540.098328,252.724823 
	C531.409912,247.894836 522.571655,245.671753 512.050842,248.215561 
M876.296143,262.035889 
	C875.308105,266.041260 873.885742,269.995941 873.411255,274.061249 
	C871.818909,287.707001 878.015320,300.421844 889.133057,303.812439 
	C895.573364,305.776581 902.913452,305.931213 909.705078,305.315796 
	C918.317139,304.535431 918.733276,302.763214 914.415344,294.949768 
	C914.343201,294.819092 914.158936,294.750336 913.817993,294.498077 
	C904.865845,296.133026 894.938782,299.119293 888.732727,289.254211 
	C883.733643,281.307892 884.028931,272.090820 888.846252,264.144196 
	C894.841736,254.254150 904.628540,257.442719 913.895386,259.006866 
	C915.003479,256.045441 916.061890,253.216660 917.102417,250.435806 
	C900.978394,243.051422 883.862732,247.870499 876.296143,262.035889 
M606.942505,289.496521 
	C606.942505,294.592224 606.942505,299.687927 606.942505,304.698822 
	C611.291016,304.698822 614.866455,304.698822 618.901550,304.698822 
	C618.901550,302.545166 618.901550,300.744415 618.901550,298.943695 
	C618.901550,277.611542 618.901550,256.279388 618.901550,234.947220 
	C618.901550,224.452911 618.901306,224.449600 608.366455,225.185059 
	C608.076904,225.205261 607.805359,225.484085 606.934509,225.976318 
	C606.934509,246.600006 606.934509,267.549042 606.942505,289.496521 
M850.054504,267.958588 
	C853.139343,260.096161 856.656006,258.003784 865.289246,258.482605 
	C866.398804,258.544098 868.113831,257.599152 868.618591,256.634125 
	C869.741760,254.486557 870.276001,252.030930 871.135193,249.445038 
	C863.020386,246.566498 855.880249,247.719620 849.198425,252.922180 
	C848.879272,245.452469 843.469543,249.007477 840.198425,248.480759 
	C839.356506,248.345184 837.244995,250.519241 837.231750,251.650070 
	C837.036804,268.292877 837.047913,284.939178 837.209229,301.582703 
	C837.220276,302.721039 838.694092,304.675171 839.692932,304.818451 
	C842.702087,305.250000 845.812683,304.974121 849.073364,304.974121 
	C849.073364,301.972748 849.022949,299.813049 849.082031,297.656372 
	C849.345825,288.029205 849.640808,278.402924 850.054504,267.958588 
z"/>
<path fill="#FAFDFE" opacity="1.000000" stroke="none" 
	d="
M767.859680,224.573654 
	C772.788391,224.428391 777.317261,224.428391 782.823853,224.428391 
	C781.323242,228.809082 780.323975,231.725983 779.350403,234.568008 
	C766.611267,233.418503 761.648926,237.445267 762.441406,248.287918 
	C766.147278,248.453354 769.893921,248.620605 774.274719,248.816162 
	C773.820312,251.982849 773.408997,254.848785 772.936646,258.140503 
	C768.533447,258.140503 764.424622,258.140503 759.943298,258.140503 
	C757.915039,269.454651 756.046509,280.393616 753.970154,291.292969 
	C752.390259,299.586548 751.086853,307.990112 748.693787,316.058044 
	C745.088135,328.213989 735.106750,334.503174 718.651611,329.237244 
	C719.616882,326.369659 720.580994,323.505676 721.519287,320.718292 
	C734.273315,321.739258 736.278625,320.747162 738.940308,308.348145 
	C742.445923,292.018219 745.094116,275.504211 748.204468,258.559906 
	C744.954590,258.333130 742.082458,258.132721 739.228699,257.933594 
	C739.603333,249.235901 739.603333,249.235901 749.664856,248.130737 
	C752.087341,237.797272 754.381592,227.095322 767.859680,224.573654 
z"/>
<path fill="#F9FDFE" opacity="1.000000" stroke="none" 
	d="
M578.664246,305.897186 
	C572.573059,305.618774 566.849548,305.882874 561.343811,304.912079 
	C553.583618,303.543671 548.867798,298.011505 548.009583,290.742279 
	C547.080872,282.876312 550.499695,275.942200 557.216675,272.300232 
	C565.282104,267.927155 573.901367,268.683167 582.553589,269.636353 
	C584.545105,261.473755 580.408203,256.616516 571.088623,257.283234 
	C565.551086,257.679413 560.106812,259.378754 554.000366,260.618042 
	C554.199646,260.909821 553.853882,260.539276 553.661194,260.101379 
	C550.176636,252.180588 550.436401,250.899704 559.044434,249.255051 
	C565.599182,248.002701 572.539978,247.520309 579.163757,248.171768 
	C589.142456,249.153168 594.650391,255.555496 594.918701,265.597565 
	C595.243347,277.744720 594.995728,289.907166 594.995728,302.808167 
	C589.720215,303.832336 584.424683,304.860413 578.664246,305.897186 
M583.235474,294.135590 
	C583.235474,289.206665 583.235474,284.277740 583.235474,278.112000 
	C577.146729,278.484863 571.542664,278.298492 566.167908,279.319550 
	C561.613525,280.184753 559.677856,283.802155 559.912659,288.667450 
	C560.128418,293.135223 562.606567,295.765747 566.504150,295.954315 
	C571.958313,296.218262 577.465759,295.378906 583.235474,294.135590 
z"/>
<path fill="#FAFDFE" opacity="1.000000" stroke="none" 
	d="
M923.540894,262.723083 
	C928.550110,249.967957 942.550537,244.926880 955.318787,248.413361 
	C966.966553,251.593872 972.888672,263.701141 970.678650,279.833130 
	C958.567017,279.833130 946.351807,279.833130 934.200439,279.833130 
	C933.370056,289.236359 938.176514,295.242096 946.876282,295.972839 
	C950.169434,296.249420 953.541138,296.169678 956.825867,295.798737 
	C959.901794,295.451416 962.910095,294.504272 965.718079,293.872833 
	C966.134583,294.219360 966.314453,294.298553 966.379517,294.433197 
	C970.319519,302.592010 970.155273,303.560333 961.289795,304.960327 
	C954.971558,305.958099 948.307129,306.331390 941.998901,305.483246 
	C930.444519,303.929840 922.478760,295.677612 921.423828,283.673126 
	C920.829590,276.910645 922.631287,269.937622 923.540894,262.723083 
M936.249451,262.940735 
	C935.369019,265.444824 934.488586,267.948914 933.513855,270.721313 
	C942.675354,270.721313 950.886169,270.721313 959.099609,270.721313 
	C958.890503,263.353424 956.191956,259.183777 950.654541,257.403717 
	C945.691162,255.808212 940.539673,257.628082 936.249451,262.940735 
z"/>
<path fill="#FAFDFF" opacity="1.000000" stroke="none" 
	d="
M645.392334,249.132965 
	C655.215210,246.211487 664.298767,246.291626 671.908813,253.440781 
	C679.565552,260.633789 680.114868,269.909882 678.924988,280.032806 
	C672.419250,280.032806 666.283569,280.032806 660.147888,280.032806 
	C654.174133,280.032806 648.200378,280.032806 642.253723,280.032806 
	C641.655884,289.620087 646.489075,295.700897 655.491394,295.927673 
	C661.702332,296.084198 667.943054,295.057739 674.716370,294.516266 
	C675.437195,296.672211 676.354187,299.414917 677.242432,302.071625 
	C660.985718,310.933197 639.304993,306.500366 632.431152,293.096527 
	C625.657227,279.887451 627.949829,255.752594 645.392334,249.132965 
M660.872803,258.265839 
	C650.506653,254.612076 641.458984,260.793091 642.665894,270.992218 
	C650.102173,270.992218 657.572815,271.001190 665.043396,270.979248 
	C665.853699,270.976868 666.663513,270.795715 667.467957,270.698151 
	C666.946411,264.157928 665.967896,262.197723 660.872803,258.265839 
z"/>
<path fill="#F8FDFE" opacity="1.000000" stroke="none" 
	d="
M818.571655,300.614258 
	C810.345520,308.114380 794.349243,307.538818 786.909790,302.457245 
	C778.353638,296.612946 773.441956,283.759460 775.290527,272.451691 
	C777.023743,261.849884 780.898682,252.903107 791.853088,249.053879 
	C812.251465,241.886139 829.883179,256.814209 827.859924,279.498810 
	C827.154602,287.407074 825.268677,294.895020 818.571655,300.614258 
M790.694580,263.396149 
	C786.711548,271.639771 786.914124,280.115845 789.760681,288.539612 
	C791.654785,294.144928 795.821655,296.764496 801.511841,296.765137 
	C807.310181,296.765778 812.579712,293.911957 813.482117,288.217987 
	C814.595154,281.195496 814.547668,273.822449 813.802612,266.726776 
	C813.243713,261.403839 809.107666,258.057617 803.549805,257.409027 
	C798.456360,256.814636 794.003723,258.119751 790.694580,263.396149 
z"/>
<path fill="#F9FDFE" opacity="1.000000" stroke="none" 
	d="
M727.066895,298.907532 
	C719.027405,308.233459 708.960815,307.151611 698.768127,305.356445 
	C697.308411,305.099365 695.887695,304.542694 694.492615,304.010193 
	C685.734863,300.667725 685.392456,299.753204 689.551331,291.143158 
	C694.295776,292.910675 698.937744,295.097168 703.822144,296.292755 
	C706.903076,297.046906 710.625488,297.076691 713.535583,296.005890 
	C715.691040,295.212738 717.955872,292.290619 718.356140,289.999695 
	C718.626465,288.452362 716.108154,285.605225 714.187012,284.657166 
	C710.212097,282.695648 705.780884,281.675537 701.577454,280.157196 
	C691.292480,276.442047 686.963196,270.706543 688.154541,262.508667 
	C689.445435,253.625717 696.723816,247.199799 706.889771,247.270889 
	C712.568115,247.310577 718.277405,248.912857 723.891785,250.172165 
	C728.247803,251.149216 729.335938,253.920090 727.035034,257.888489 
	C726.469055,258.864594 726.124023,259.968811 725.633728,261.116394 
	C721.320984,259.873688 717.281189,258.514954 713.144226,257.592285 
	C710.753357,257.059082 707.922607,256.482483 705.805176,257.285034 
	C703.521667,258.150513 700.783875,260.330902 700.237183,262.451447 
	C699.817261,264.080383 702.037292,267.187500 703.892212,268.415649 
	C706.575867,270.192566 709.991577,270.862671 713.092712,272.010925 
	C715.269775,272.816986 717.500610,273.506622 719.608337,274.465942 
	C730.350403,279.355255 733.152405,288.270447 727.066895,298.907532 
z"/>
<path fill="#F9FDFE" opacity="1.000000" stroke="none" 
	d="
M512.451172,248.143967 
	C522.571655,245.671753 531.409912,247.894836 540.098328,252.724823 
	C538.926697,255.852951 537.960571,258.432495 536.927429,261.191040 
	C532.388428,259.839813 528.233704,258.233276 523.929199,257.453003 
	C521.112122,256.942383 517.882874,257.060944 515.210876,257.980499 
	C513.464172,258.581604 511.542084,260.994385 511.265930,262.831299 
	C511.034668,264.369934 512.712891,266.722351 514.199402,267.860718 
	C516.109009,269.323090 518.644775,270.003845 520.960693,270.891083 
	C524.217773,272.138855 527.600891,273.084106 530.788574,274.481506 
	C539.305054,278.214905 542.245300,283.422791 541.054016,292.181458 
	C540.123413,299.024109 534.217468,305.373322 526.559082,305.776031 
	C519.747986,306.134216 512.609924,305.633545 506.038849,303.904999 
	C496.798065,301.474121 496.564545,299.813507 500.881409,291.124634 
	C505.463959,292.879944 509.928162,295.137177 514.661011,296.218567 
	C518.053467,296.993683 522.011719,296.864624 525.318726,295.845215 
	C527.268127,295.244324 529.311035,292.258575 529.659973,290.080750 
	C529.900391,288.579987 527.672852,285.886719 525.912109,285.022247 
	C521.770996,282.989044 517.269165,281.671997 512.876221,280.173981 
	C503.805634,277.080902 499.402893,272.318176 499.112579,265.142181 
	C498.806824,257.583984 503.242706,251.780701 512.451172,248.143967 
z"/>
<path fill="#F9FDFE" opacity="1.000000" stroke="none" 
	d="
M876.509949,261.719421 
	C883.862732,247.870499 900.978394,243.051422 917.102417,250.435806 
	C916.061890,253.216660 915.003479,256.045441 913.895386,259.006866 
	C904.628540,257.442719 894.841736,254.254150 888.846252,264.144196 
	C884.028931,272.090820 883.733643,281.307892 888.732727,289.254211 
	C894.938782,299.119293 904.865845,296.133026 913.817993,294.498077 
	C914.158936,294.750336 914.343201,294.819092 914.415344,294.949768 
	C918.733276,302.763214 918.317139,304.535431 909.705078,305.315796 
	C902.913452,305.931213 895.573364,305.776581 889.133057,303.812439 
	C878.015320,300.421844 871.818909,287.707001 873.411255,274.061249 
	C873.885742,269.995941 875.308105,266.041260 876.509949,261.719421 
z"/>
<path fill="#FAFDFE" opacity="1.000000" stroke="none" 
	d="
M606.938477,288.997314 
	C606.934509,267.549042 606.934509,246.600006 606.934509,225.976318 
	C607.805359,225.484085 608.076904,225.205261 608.366455,225.185059 
	C618.901306,224.449600 618.901550,224.452911 618.901550,234.947220 
	C618.901550,256.279388 618.901550,277.611542 618.901550,298.943695 
	C618.901550,300.744415 618.901550,302.545166 618.901550,304.698822 
	C614.866455,304.698822 611.291016,304.698822 606.942505,304.698822 
	C606.942505,299.687927 606.942505,294.592224 606.938477,288.997314 
z"/>
<path fill="#F8FCFE" opacity="1.000000" stroke="none" 
	d="
M849.989502,268.367432 
	C849.640808,278.402924 849.345825,288.029205 849.082031,297.656372 
	C849.022949,299.813049 849.073364,301.972748 849.073364,304.974121 
	C845.812683,304.974121 842.702087,305.250000 839.692932,304.818451 
	C838.694092,304.675171 837.220276,302.721039 837.209229,301.582703 
	C837.047913,284.939178 837.036804,268.292877 837.231750,251.650070 
	C837.244995,250.519241 839.356506,248.345184 840.198425,248.480759 
	C843.469543,249.007477 848.879272,245.452469 849.198425,252.922180 
	C855.880249,247.719620 863.020386,246.566498 871.135193,249.445038 
	C870.276001,252.030930 869.741760,254.486557 868.618591,256.634125 
	C868.113831,257.599152 866.398804,258.544098 865.289246,258.482605 
	C856.656006,258.003784 853.139343,260.096161 849.989502,268.367432 
z"/>
<path fill="#04A1E4" opacity="1.000000" stroke="none" 
	d="
M583.092957,294.573578 
	C577.465759,295.378906 571.958313,296.218262 566.504150,295.954315 
	C562.606567,295.765747 560.128418,293.135223 559.912659,288.667450 
	C559.677856,283.802155 561.613525,280.184753 566.167908,279.319550 
	C571.542664,278.298492 577.146729,278.484863 583.235474,278.112000 
	C583.235474,284.277740 583.235474,289.206665 583.092957,294.573578 
z"/>
<path fill="#05A2E5" opacity="1.000000" stroke="none" 
	d="
M936.479126,262.635529 
	C940.539673,257.628082 945.691162,255.808212 950.654541,257.403717 
	C956.191956,259.183777 958.890503,263.353424 959.099609,270.721313 
	C950.886169,270.721313 942.675354,270.721313 933.513855,270.721313 
	C934.488586,267.948914 935.369019,265.444824 936.479126,262.635529 
z"/>
<path fill="#06A2E5" opacity="1.000000" stroke="none" 
	d="
M661.201782,258.474457 
	C665.967896,262.197723 666.946411,264.157928 667.467957,270.698151 
	C666.663513,270.795715 665.853699,270.976868 665.043396,270.979248 
	C657.572815,271.001190 650.102173,270.992218 642.665894,270.992218 
	C641.458984,260.793091 650.506653,254.612076 661.201782,258.474457 
z"/>
<path fill="#03A1E4" opacity="1.000000" stroke="none" 
	d="
M790.857544,263.050659 
	C794.003723,258.119751 798.456360,256.814636 803.549805,257.409027 
	C809.107666,258.057617 813.243713,261.403839 813.802612,266.726776 
	C814.547668,273.822449 814.595154,281.195496 813.482117,288.217987 
	C812.579712,293.911957 807.310181,296.765778 801.511841,296.765137 
	C795.821655,296.764496 791.654785,294.144928 789.760681,288.539612 
	C786.914124,280.115845 786.711548,271.639771 790.857544,263.050659 
z"/>
</svg>