<svg version="1.1" id="Layer_1" xmlns="http://www.w3.org/2000/svg" xmlns:xlink="http://www.w3.org/1999/xlink" x="0px" y="0px"
	 width="100%" viewBox="0 0 2380 2380" enable-background="new 0 0 2380 2380" xml:space="preserve">
<path fill="#FFFFFF" opacity="1.000000" stroke="none" 
	d="
M1050.000000,2382.000000 
	C700.000000,2382.000000 351.000000,2382.000000 2.000000,2382.000000 
	C2.000000,1588.666626 2.000000,795.333313 2.000000,2.000000 
	C795.333313,2.000000 1588.666626,2.000000 2382.000000,2.000000 
	C2382.000000,795.333313 2382.000000,1588.666626 2382.000000,2382.000000 
	C1938.333374,2382.000000 1494.666626,2382.000000 1050.000000,2382.000000 
M907.000000,910.242676 
	C848.008423,910.243225 789.016541,910.145447 730.025391,910.302429 
	C711.624573,910.351440 693.632935,912.967224 676.413696,920.133545 
	C621.804688,942.860840 589.664001,1000.154785 601.013550,1058.740356 
	C612.843567,1119.806641 663.296814,1160.927734 726.374939,1161.254639 
	C827.357910,1161.777954 928.345825,1161.488281 1029.330933,1161.255371 
	C1039.909668,1161.230835 1050.625244,1160.036987 1061.037231,1158.096924 
	C1127.221069,1145.765381 1173.612549,1079.536987 1159.058594,1011.910645 
	C1147.838135,959.773376 1115.117432,926.306458 1062.589600,913.890259 
	C1052.339966,911.467529 1041.541382,910.511475 1030.981201,910.409485 
	C990.324036,910.016968 949.660889,910.245972 907.000000,910.242676 
M1567.000000,1474.409424 
	C1598.983276,1474.394653 1630.968384,1474.580688 1662.949585,1474.315674 
	C1705.142456,1473.966187 1738.723022,1456.294556 1763.920166,1422.686401 
	C1793.641113,1383.044434 1795.927612,1326.123535 1769.304932,1284.499390 
	C1743.804932,1244.630005 1707.008789,1224.492310 1659.786011,1224.374634 
	C1557.840576,1224.120728 1455.894043,1224.254150 1353.947998,1224.378418 
	C1346.003418,1224.388184 1337.976562,1225.036133 1330.129395,1226.280396 
	C1263.038574,1236.918701 1217.260498,1300.187744 1226.249878,1364.999268 
	C1232.121948,1407.335449 1254.009155,1439.146606 1291.649780,1459.791016 
	C1311.093018,1470.454712 1332.018555,1474.544189 1354.111694,1474.479126 
	C1424.407227,1474.271973 1494.703857,1474.407104 1567.000000,1474.409424 
M1161.521118,1575.000000 
	C1161.520508,1500.666870 1161.760986,1426.332275 1161.284058,1352.002197 
	C1161.203735,1339.502075 1159.698853,1326.497192 1155.980957,1314.624512 
	C1141.081421,1267.044067 1108.799805,1236.708618 1059.870117,1227.191650 
	C1011.250122,1217.734863 970.489929,1234.085938 938.975220,1272.150024 
	C919.502441,1295.669556 911.528198,1323.343750 911.591370,1353.799683 
	C911.801514,1455.132202 911.664978,1556.465454 911.685730,1657.798340 
	C911.686646,1662.127808 911.811035,1666.464722 912.079468,1670.785645 
	C917.242615,1753.924438 1003.243286,1809.022461 1080.844604,1778.929443 
	C1129.736938,1759.969482 1161.456543,1713.622803 1161.515381,1660.999634 
	C1161.546631,1632.999756 1161.520752,1604.999878 1161.521118,1575.000000 
M1225.626465,745.000549 
	C1225.626709,841.661804 1225.670654,938.323181 1225.602905,1034.984375 
	C1225.579590,1068.220459 1237.059448,1096.845337 1259.646118,1121.036255 
	C1302.125366,1166.532471 1371.230469,1173.783691 1421.591797,1137.515869 
	C1457.002441,1112.014771 1474.953979,1076.689453 1475.135132,1033.220337 
	C1475.558716,931.561096 1475.306030,829.898682 1475.203369,728.237732 
	C1475.195557,720.598999 1474.661621,712.897339 1473.600464,705.333191 
	C1463.962280,636.630554 1397.647705,587.649536 1329.462280,600.322266 
	C1278.440063,609.805176 1245.230469,640.612244 1229.923584,690.457458 
	C1224.628418,707.700562 1225.735107,725.379944 1225.626465,745.000549 
M828.865356,1224.445190 
	C794.546021,1224.447144 760.226501,1224.364502 725.907471,1224.468262 
	C649.282959,1224.699951 592.070435,1288.199951 599.894531,1364.228516 
	C606.946777,1432.756348 674.367798,1484.250244 742.372253,1473.048096 
	C804.260803,1462.853638 848.231323,1411.836914 848.748779,1349.115479 
	C849.064941,1310.800415 848.826172,1272.480835 848.793457,1234.163208 
	C848.790955,1231.246216 848.443420,1228.329468 848.194336,1224.447632 
	C841.985962,1224.447632 836.400391,1224.447632 828.865356,1224.445190 
M1161.791626,810.998596 
	C1161.791504,784.020508 1161.946777,757.040955 1161.703613,730.065063 
	C1161.623047,721.123291 1161.047607,712.115173 1159.783936,703.267944 
	C1155.721924,674.827637 1142.483643,650.780762 1121.634888,631.520630 
	C1102.987549,614.294189 1080.921875,603.176941 1055.245117,599.487305 
	C1017.333496,594.039734 983.930237,603.812012 955.043884,628.397827 
	C914.628540,662.796326 901.327026,717.859436 919.634949,767.254639 
	C936.514587,812.796265 982.834717,847.636475 1033.080078,847.918945 
	C1072.380127,848.139893 1111.682495,847.971985 1150.983765,847.934387 
	C1154.213989,847.931335 1157.443970,847.601746 1161.791260,847.362366 
	C1161.791260,835.457214 1161.791260,824.227173 1161.791626,810.998596 
M1378.842651,1783.984863 
	C1441.312866,1768.949219 1484.754395,1708.461182 1473.287109,1641.145996 
	C1462.864380,1579.963257 1409.502686,1537.751709 1353.469727,1537.652710 
	C1313.847168,1537.582764 1274.224365,1537.605713 1234.601685,1537.630981 
	C1231.693970,1537.632812 1228.786499,1537.989014 1224.709595,1538.257568 
	C1224.709595,1542.448853 1224.709595,1546.021484 1224.709595,1549.594116 
	C1224.709473,1584.555298 1224.628418,1619.516968 1224.772583,1654.477539 
	C1224.804077,1662.101807 1225.256348,1669.768799 1226.166016,1677.337891 
	C1234.968750,1750.583496 1304.709106,1799.943604 1378.842651,1783.984863 
M1567.010376,1160.339233 
	C1598.981812,1160.339722 1630.958130,1159.986694 1662.923828,1160.415527 
	C1726.631958,1161.270020 1787.583862,1108.421143 1787.493286,1035.732544 
	C1787.399292,960.202881 1721.181274,904.258423 1649.925171,911.705627 
	C1588.348145,918.141174 1538.383789,971.857788 1538.133179,1033.611328 
	C1537.976440,1072.242920 1538.080811,1110.875732 1538.108276,1149.507935 
	C1538.110596,1152.744629 1538.420532,1155.981079 1538.645386,1160.339600 
	C1547.887695,1160.339600 1556.452515,1160.339600 1567.010376,1160.339233 
z"/>
<path fill="#5FC6ED" opacity="1.000000" stroke="none" 
	d="
M908.000000,910.242920 
	C949.660889,910.245972 990.324036,910.016968 1030.981201,910.409485 
	C1041.541382,910.511475 1052.339966,911.467529 1062.589600,913.890259 
	C1115.117432,926.306458 1147.838135,959.773376 1159.058594,1011.910645 
	C1173.612549,1079.536987 1127.221069,1145.765381 1061.037231,1158.096924 
	C1050.625244,1160.036987 1039.909668,1161.230835 1029.330933,1161.255371 
	C928.345825,1161.488281 827.357910,1161.777954 726.374939,1161.254639 
	C663.296814,1160.927734 612.843567,1119.806641 601.013550,1058.740356 
	C589.664001,1000.154785 621.804688,942.860840 676.413696,920.133545 
	C693.632935,912.967224 711.624573,910.351440 730.025391,910.302429 
	C789.016541,910.145447 848.008423,910.243225 908.000000,910.242920 
z"/>
<path fill="#E4B04E" opacity="1.000000" stroke="none" 
	d="
M1566.000000,1474.409790 
	C1494.703857,1474.407104 1424.407227,1474.271973 1354.111694,1474.479126 
	C1332.018555,1474.544189 1311.093018,1470.454712 1291.649780,1459.791016 
	C1254.009155,1439.146606 1232.121948,1407.335449 1226.249878,1364.999268 
	C1217.260498,1300.187744 1263.038574,1236.918701 1330.129395,1226.280396 
	C1337.976562,1225.036133 1346.003418,1224.388184 1353.947998,1224.378418 
	C1455.894043,1224.254150 1557.840576,1224.120728 1659.786011,1224.374634 
	C1707.008789,1224.492310 1743.804932,1244.630005 1769.304932,1284.499390 
	C1795.927612,1326.123535 1793.641113,1383.044434 1763.920166,1422.686401 
	C1738.723022,1456.294556 1705.142456,1473.966187 1662.949585,1474.315674 
	C1630.968384,1474.580688 1598.983276,1474.394653 1566.000000,1474.409790 
z"/>
<path fill="#CF3E62" opacity="1.000000" stroke="none" 
	d="
M1161.520996,1576.000000 
	C1161.520752,1604.999878 1161.546631,1632.999756 1161.515381,1660.999634 
	C1161.456543,1713.622803 1129.736938,1759.969482 1080.844604,1778.929443 
	C1003.243286,1809.022461 917.242615,1753.924438 912.079468,1670.785645 
	C911.811035,1666.464722 911.686646,1662.127808 911.685730,1657.798340 
	C911.664978,1556.465454 911.801514,1455.132202 911.591370,1353.799683 
	C911.528198,1323.343750 919.502441,1295.669556 938.975220,1272.150024 
	C970.489929,1234.085938 1011.250122,1217.734863 1059.870117,1227.191650 
	C1108.799805,1236.708618 1141.081421,1267.044067 1155.980957,1314.624512 
	C1159.698853,1326.497192 1161.203735,1339.502075 1161.284058,1352.002197 
	C1161.760986,1426.332275 1161.520508,1500.666870 1161.520996,1576.000000 
z"/>
<path fill="#5AB181" opacity="1.000000" stroke="none" 
	d="
M1225.626221,744.000732 
	C1225.735107,725.379944 1224.628418,707.700562 1229.923584,690.457458 
	C1245.230469,640.612244 1278.440063,609.805176 1329.462280,600.322266 
	C1397.647705,587.649536 1463.962280,636.630554 1473.600464,705.333191 
	C1474.661621,712.897339 1475.195557,720.598999 1475.203369,728.237732 
	C1475.306030,829.898682 1475.558716,931.561096 1475.135132,1033.220337 
	C1474.953979,1076.689453 1457.002441,1112.014771 1421.591797,1137.515869 
	C1371.230469,1173.783691 1302.125366,1166.532471 1259.646118,1121.036255 
	C1237.059448,1096.845337 1225.579590,1068.220459 1225.602905,1034.984375 
	C1225.670654,938.323181 1225.626709,841.661804 1225.626221,744.000732 
z"/>
<path fill="#CF3E62" opacity="1.000000" stroke="none" 
	d="
M829.840088,1224.446411 
	C836.400391,1224.447632 841.985962,1224.447632 848.194336,1224.447632 
	C848.443420,1228.329468 848.790955,1231.246216 848.793457,1234.163208 
	C848.826172,1272.480835 849.064941,1310.800415 848.748779,1349.115479 
	C848.231323,1411.836914 804.260803,1462.853638 742.372253,1473.048096 
	C674.367798,1484.250244 606.946777,1432.756348 599.894531,1364.228516 
	C592.070435,1288.199951 649.282959,1224.699951 725.907471,1224.468262 
	C760.226501,1224.364502 794.546021,1224.447144 829.840088,1224.446411 
z"/>
<path fill="#5FC6EC" opacity="1.000000" stroke="none" 
	d="
M1161.791504,811.997925 
	C1161.791260,824.227173 1161.791260,835.457214 1161.791260,847.362366 
	C1157.443970,847.601746 1154.213989,847.931335 1150.983765,847.934387 
	C1111.682495,847.971985 1072.380127,848.139893 1033.080078,847.918945 
	C982.834717,847.636475 936.514587,812.796265 919.634949,767.254639 
	C901.327026,717.859436 914.628540,662.796326 955.043884,628.397827 
	C983.930237,603.812012 1017.333496,594.039734 1055.245117,599.487305 
	C1080.921875,603.176941 1102.987549,614.294189 1121.634888,631.520630 
	C1142.483643,650.780762 1155.721924,674.827637 1159.783936,703.267944 
	C1161.047607,712.115173 1161.623047,721.123291 1161.703613,730.065063 
	C1161.946777,757.040955 1161.791504,784.020508 1161.791504,811.997925 
z"/>
<path fill="#E4B04E" opacity="1.000000" stroke="none" 
	d="
M1378.021484,1784.170532 
	C1304.709106,1799.943604 1234.968750,1750.583496 1226.166016,1677.337891 
	C1225.256348,1669.768799 1224.804077,1662.101807 1224.772583,1654.477539 
	C1224.628418,1619.516968 1224.709473,1584.555298 1224.709595,1549.594116 
	C1224.709595,1546.021484 1224.709595,1542.448853 1224.709595,1538.257568 
	C1228.786499,1537.989014 1231.693970,1537.632812 1234.601685,1537.630981 
	C1274.224365,1537.605713 1313.847168,1537.582764 1353.469727,1537.652710 
	C1409.502686,1537.751709 1462.864380,1579.963257 1473.287109,1641.145996 
	C1484.754395,1708.461182 1441.312866,1768.949219 1378.021484,1784.170532 
z"/>
<path fill="#5AB182" opacity="1.000000" stroke="none" 
	d="
M1566.013916,1160.339355 
	C1556.452515,1160.339600 1547.887695,1160.339600 1538.645386,1160.339600 
	C1538.420532,1155.981079 1538.110596,1152.744629 1538.108276,1149.507935 
	C1538.080811,1110.875732 1537.976440,1072.242920 1538.133179,1033.611328 
	C1538.383789,971.857788 1588.348145,918.141174 1649.925171,911.705627 
	C1721.181274,904.258423 1787.399292,960.202881 1787.493286,1035.732544 
	C1787.583862,1108.421143 1726.631958,1161.270020 1662.923828,1160.415527 
	C1630.958130,1159.986694 1598.981812,1160.339722 1566.013916,1160.339355 
z"/>
</svg>