<svg version="1.1" id="Layer_1" xmlns="http://www.w3.org/2000/svg" xmlns:xlink="http://www.w3.org/1999/xlink" x="0px" y="0px"
	 width="100%" viewBox="0 0 429 215" enable-background="new 0 0 429 215" xml:space="preserve">
<path fill="#FFFFFF" opacity="1.000000" stroke="none" 
	d="
M314.000000,216.000000 
	C209.333374,216.000000 105.166740,216.000000 1.000084,216.000000 
	C1.000056,144.333389 1.000056,72.666794 1.000028,1.000142 
	C143.999893,1.000094 286.999786,1.000094 429.999756,1.000047 
	C429.999817,72.666527 429.999817,144.333054 429.999908,215.999786 
	C391.500000,216.000000 353.000000,216.000000 314.000000,216.000000 
M162.129852,193.410660 
	C183.740677,206.968048 207.261551,211.693573 232.369812,207.937347 
	C255.537674,204.471436 275.350983,194.043716 291.200317,176.821304 
	C310.864288,155.453796 319.832001,130.061096 318.135010,100.962616 
	C316.621704,75.013268 306.433228,52.776783 287.883118,34.973003 
	C262.433105,10.546974 231.781860,1.400934 196.961594,7.955964 
	C144.788696,17.777679 106.880745,67.872459 116.350479,124.668373 
	C121.221062,153.880356 136.834946,176.594986 162.129852,193.410660 
z"/>
<path fill="#5DE8C1" opacity="1.000000" stroke="none" 
	d="
M161.827362,193.210236 
	C136.834946,176.594986 121.221062,153.880356 116.350479,124.668373 
	C106.880745,67.872459 144.788696,17.777679 196.961594,7.955964 
	C231.781860,1.400934 262.433105,10.546974 287.883118,34.973003 
	C306.433228,52.776783 316.621704,75.013268 318.135010,100.962616 
	C319.832001,130.061096 310.864288,155.453796 291.200317,176.821304 
	C275.350983,194.043716 255.537674,204.471436 232.369812,207.937347 
	C207.261551,211.693573 183.740677,206.968048 161.827362,193.210236 
M175.383392,47.039062 
	C175.086182,47.331230 174.788971,47.623398 174.030136,48.357555 
	C174.353653,51.268059 174.471237,54.219193 175.035965,57.082111 
	C177.638123,70.273293 180.237396,83.468636 183.194305,96.582077 
	C183.603958,98.398788 185.757416,100.387238 187.573593,101.102097 
	C188.601913,101.506859 191.367661,99.854851 192.021362,98.491661 
	C199.056412,83.821228 205.906586,69.059982 212.617035,54.237442 
	C214.475189,50.133018 212.375214,46.574493 207.874298,46.526886 
	C197.256256,46.414574 186.633102,46.787819 175.383392,47.039062 
M188.882599,169.691788 
	C190.006271,173.079254 192.502060,174.083847 195.866470,174.036026 
	C203.197342,173.931763 210.535736,173.843491 217.860870,174.073410 
	C221.385269,174.184036 223.342621,172.867355 224.791061,169.721680 
	C241.349579,133.760162 258.017975,97.849251 274.600189,61.898617 
	C277.487732,55.638363 275.170044,52.257767 267.763550,51.320862 
	C266.426422,47.713661 263.771362,46.299004 260.005707,46.349392 
	C252.847977,46.445156 245.686371,46.482021 238.529922,46.350430 
	C234.899445,46.283672 232.810928,47.730770 231.269897,51.083878 
	C214.963409,86.565422 198.514526,121.981491 182.134155,157.429138 
	C178.613937,165.047058 180.436111,168.125061 188.882599,169.691788 
z"/>
<path fill="#132F45" opacity="1.000000" stroke="none" 
	d="
M188.786484,168.927704 
	C180.436111,168.125061 178.613937,165.047058 182.134155,157.429138 
	C198.514526,121.981491 214.963409,86.565422 231.269897,51.083878 
	C232.810928,47.730770 234.899445,46.283672 238.529922,46.350430 
	C245.686371,46.482021 252.847977,46.445156 260.005707,46.349392 
	C263.771362,46.299004 266.426422,47.713661 267.833313,52.008606 
	C267.754028,53.167843 267.654633,53.662266 267.448944,54.107582 
	C250.339996,91.144302 233.269012,128.198868 215.959290,165.141541 
	C215.157257,166.853226 212.269913,168.442688 210.253510,168.576309 
	C203.121384,169.048981 195.945679,168.863632 188.786484,168.927704 
M241.367783,51.956352 
	C237.888657,51.123543 236.453049,53.050159 235.120117,55.958878 
	C222.672226,83.122604 210.091263,110.225365 197.553513,137.347931 
	C193.677994,145.731720 189.816727,154.122131 185.703934,163.040817 
	C187.822083,163.040817 189.279602,163.040817 191.701340,163.154297 
	C196.692383,163.160095 201.704559,162.888474 206.667252,163.266418 
	C210.144150,163.531204 211.592789,162.066513 212.932297,159.152161 
	C228.704254,124.836838 244.595551,90.576385 260.443237,56.295853 
	C261.040405,55.004147 261.513641,53.655163 262.131622,52.116222 
	C255.165604,52.116222 248.690308,52.116222 241.367783,51.956352 
z"/>
<path fill="#FBFDFD" opacity="1.000000" stroke="none" 
	d="
M188.834534,169.309753 
	C195.945679,168.863632 203.121384,169.048981 210.253510,168.576309 
	C212.269913,168.442688 215.157257,166.853226 215.959290,165.141541 
	C233.269012,128.198868 250.339996,91.144302 267.448944,54.107582 
	C267.654633,53.662266 267.754028,53.167843 267.977203,52.329697 
	C275.170044,52.257767 277.487732,55.638363 274.600189,61.898617 
	C258.017975,97.849251 241.349579,133.760162 224.791061,169.721680 
	C223.342621,172.867355 221.385269,174.184036 217.860870,174.073410 
	C210.535736,173.843491 203.197342,173.931763 195.866470,174.036026 
	C192.502060,174.083847 190.006271,173.079254 188.834534,169.309753 
z"/>
<path fill="#0F2C42" opacity="1.000000" stroke="none" 
	d="
M176.012009,46.964668 
	C186.633102,46.787819 197.256256,46.414574 207.874298,46.526886 
	C212.375214,46.574493 214.475189,50.133018 212.617035,54.237442 
	C205.906586,69.059982 199.056412,83.821228 192.021362,98.491661 
	C191.367661,99.854851 188.601913,101.506859 187.573593,101.102097 
	C185.757416,100.387238 183.603958,98.398788 183.194305,96.582077 
	C180.237396,83.468636 177.638123,70.273293 175.035965,57.082111 
	C174.471237,54.219193 174.353653,51.268059 174.570923,48.074886 
	C175.411819,47.516369 175.711914,47.240517 176.012009,46.964668 
z"/>
<path fill="#0A1F3A" opacity="1.000000" stroke="none" 
	d="
M175.697693,47.001865 
	C175.711914,47.240517 175.411819,47.516369 174.801743,47.853889 
	C174.788971,47.623398 175.086182,47.331230 175.697693,47.001865 
z"/>
<path fill="#FDFEFE" opacity="1.000000" stroke="none" 
	d="
M242.215012,52.116219 
	C248.690308,52.116222 255.165604,52.116222 262.131622,52.116222 
	C261.513641,53.655163 261.040405,55.004147 260.443237,56.295853 
	C244.595551,90.576385 228.704254,124.836838 212.932297,159.152161 
	C211.592789,162.066513 210.144150,163.531204 206.667252,163.266418 
	C201.704559,162.888474 196.692383,163.160095 191.273346,162.720520 
	C202.526337,136.938400 214.157623,111.566994 225.910767,86.252151 
	C231.220566,74.815498 236.772781,63.491390 242.215012,52.116219 
z"/>
<path fill="#5EE6C0" opacity="1.000000" stroke="none" 
	d="
M241.791397,52.036285 
	C236.772781,63.491390 231.220566,74.815498 225.910767,86.252151 
	C214.157623,111.566994 202.526337,136.938400 190.791229,162.663788 
	C189.279602,163.040817 187.822083,163.040817 185.703934,163.040817 
	C189.816727,154.122131 193.677994,145.731720 197.553513,137.347931 
	C210.091263,110.225365 222.672226,83.122604 235.120117,55.958878 
	C236.453049,53.050159 237.888657,51.123543 241.791397,52.036285 
z"/>
</svg>